<svg viewBox="0 0 300 300" xmlns="http://www.w3.org/2000/svg">
  <rect width="300" height="300" fill="#ffffff"/>
  <!-- finder patterns (corner squares, like a real QR code) -->
  <g fill="#3f3a37">
    <rect x="20" y="20" width="50" height="50"/>
    <rect x="230" y="20" width="50" height="50"/>
    <rect x="20" y="230" width="50" height="50"/>
  </g>
  <g fill="#ffffff">
    <rect x="30" y="30" width="30" height="30"/>
    <rect x="240" y="30" width="30" height="30"/>
    <rect x="30" y="240" width="30" height="30"/>
  </g>
  <g fill="#3f3a37">
    <rect x="40" y="40" width="10" height="10"/>
    <rect x="250" y="40" width="10" height="10"/>
    <rect x="40" y="250" width="10" height="10"/>
  </g>
  <!-- pseudo-random data modules -->
  <g fill="#3f3a37">
    <rect x="90" y="25" width="10" height="10"/><rect x="110" y="25" width="10" height="10"/><rect x="140" y="25" width="10" height="10"/><rect x="170" y="25" width="10" height="10"/><rect x="190" y="25" width="10" height="10"/>
    <rect x="95" y="45" width="10" height="10"/><rect x="125" y="45" width="10" height="10"/><rect x="155" y="45" width="10" height="10"/><rect x="185" y="45" width="10" height="10"/>
    <rect x="80" y="65" width="10" height="10"/><rect x="105" y="65" width="10" height="10"/><rect x="145" y="65" width="10" height="10"/><rect x="200" y="65" width="10" height="10"/>
    <rect x="25" y="90" width="10" height="10"/><rect x="45" y="95" width="10" height="10"/><rect x="65" y="85" width="10" height="10"/>
    <rect x="90" y="90" width="10" height="10"/><rect x="115" y="100" width="10" height="10"/><rect x="140" y="90" width="10" height="10"/><rect x="165" y="105" width="10" height="10"/><rect x="195" y="95" width="10" height="10"/><rect x="220" y="90" width="10" height="10"/>
    <rect x="245" y="95" width="10" height="10"/><rect x="260" y="110" width="10" height="10"/>
    <rect x="90" y="120" width="10" height="10"/><rect x="120" y="130" width="10" height="10"/><rect x="150" y="120" width="10" height="10"/><rect x="180" y="135" width="10" height="10"/><rect x="210" y="120" width="10" height="10"/>
    <rect x="30" y="140" width="10" height="10"/><rect x="60" y="150" width="10" height="10"/>
    <rect x="95" y="150" width="10" height="10"/><rect x="125" y="160" width="10" height="10"/><rect x="155" y="150" width="10" height="10"/><rect x="185" y="165" width="10" height="10"/><rect x="215" y="150" width="10" height="10"/><rect x="245" y="160" width="10" height="10"/><rect x="260" y="150" width="10" height="10"/>
    <rect x="90" y="180" width="10" height="10"/><rect x="120" y="190" width="10" height="10"/><rect x="150" y="180" width="10" height="10"/><rect x="180" y="195" width="10" height="10"/><rect x="210" y="180" width="10" height="10"/><rect x="240" y="190" width="10" height="10"/>
    <rect x="95" y="210" width="10" height="10"/><rect x="125" y="200" width="10" height="10"/><rect x="155" y="215" width="10" height="10"/><rect x="185" y="205" width="10" height="10"/><rect x="215" y="215" width="10" height="10"/><rect x="245" y="205" width="10" height="10"/><rect x="260" y="220" width="10" height="10"/>
    <rect x="95" y="235" width="10" height="10"/><rect x="120" y="245" width="10" height="10"/><rect x="150" y="235" width="10" height="10"/><rect x="180" y="250" width="10" height="10"/><rect x="210" y="240" width="10" height="10"/><rect x="240" y="250" width="10" height="10"/><rect x="260" y="240" width="10" height="10"/>
    <rect x="95" y="260" width="10" height="10"/><rect x="125" y="270" width="10" height="10"/><rect x="155" y="260" width="10" height="10"/><rect x="185" y="275" width="10" height="10"/><rect x="215" y="265" width="10" height="10"/><rect x="245" y="275" width="10" height="10"/>
  </g>
  <!-- mock banner -->
  <rect x="20" y="130" width="260" height="40" rx="8" fill="#c88f7d" opacity="0.92"/>
  <text x="150" y="156" text-anchor="middle" font-family="sans-serif" font-size="18" font-weight="bold" fill="#ffffff">ตัวอย่าง QR (Mock)</text>
</svg>
